<?xml version="1.0" encoding="UTF-8"?>
<svg id="Capa_2" data-name="Capa 2" xmlns="http://www.w3.org/2000/svg" viewBox="0 0 1323.51 911.02">
  <defs>
    <style>
      .cls-1 {
        fill: #9a9198;
      }

      .cls-2 {
        fill: #f77c4d;
      }

      .cls-3 {
        fill: #acc8ab;
      }

      .cls-4 {
        fill: #cb8851;
      }

      .cls-5 {
        fill: #9e4b46;
      }
    </style>
  </defs>
  <g id="Capa_1-2" data-name="Capa 1">
    <g>
      <path class="cls-1" d="m360.18,401.16c-7.68-32.32-28.71-54.2-57.62-69.69-11.16-5.98-25.51-3.14-35.07-15.04-2.61-3.25-14.92.3-22.26,2.47-1.98.58-2.42,7.52-2.92,11.61-.65,5.31-.7,10.69-.91,16.04-2.5,63.93-5.12,127.86-7.31,191.81-.27,7.85-3.09,11.71-9.51,12.77v6.93c12.99.06,25.55.66,38.02-.14,50.01-3.18,82.37-30.08,98.46-76.49,9.18-26.48,5.42-53.78-.87-80.28Zm-31.67,90.73c-1.92,31.31-22.9,48.53-56.38,47.5v-200.04c18.36.56,31.72,9.21,41.89,23.53,10.37,14.6,14.96,31.37,15.33,48.84.57,26.71.79,53.53-.84,80.17Z"/>
      <path class="cls-4" d="m241.58,575.66c-4.56-1.77-9.76-1.87-15.2-2.76-1.18-4.83-2.4-9.86-3.61-14.84.49,0,.97,0,1.46,0v-6.87c-.98.14-2.03.22-3.18.25-21.19-86.84-42.39-173.32-63.27-259.87-1.84-7.64-1.62-15.77-2.46-24.73-7.72.06-12.23,4.28-15.47,12.99-35.84,96.38-72.43,192.48-108.1,288.92-4.79,12.96-8.73,23.13-25.34,19.2-1.68-.4-4.25,2.97-6.4,4.59,2.24,1.02,4.53,3.02,6.72,2.91,19.21-.9,38.42-1.99,57.58-3.53,2.63-.21,5.04-3.21,7.55-4.91-2.68-1.32-5.38-3.78-8.05-3.76-9.59.09-19.17,1.02-29.95,1.71,16.18-45.25,31.78-89.04,47.67-132.73.79-2.18,4.22-4.81,6.45-4.85,24.25-.35,48.5-.22,73.81-.22,10.64,42.52,20.89,83.53,31.05,124.12-8.9,4.99-18.5,6.21-22.79,16.14,9.76-1.54,17.89-3.87,26.02-3.88,14.8-.03,29.59,1.48,44.4,1.95,2.71.09,5.48-1.72,8.22-2.65-2.34-2.49-4.24-6.09-7.11-7.21Zm-155.95-136.9c15.37-40.16,30.37-79.37,46.21-120.77,2.33,3.58,4.35,5.43,4.84,7.61,8.3,37.39,16.41,74.82,24.76,113.16h-75.81Z"/>
      <path class="cls-4" d="m794.84,718.65c-2.19,28.91-1.79,58.31-7.16,86.62-8.91,46.9-35.46,82.17-80.55,101.08-7.18,3.01-16.15,3.56-24.04,2.74-15.06-1.57-25.88-8.84-30.85-24.8-9.09-29.16-11.67-58.67-7.8-88.73,3.86-29.98,7.87-59.96,12.99-89.74,5.81-33.77,16.95-65.81,36.05-94.61,4.33-6.54,9.45-12.57,14.42-18.66,17.03-20.88,61.94-18.08,73.74,11.22,8.23,20.44,10.21,41.52,11.49,62.82,1.04,17.28.21,34.66.21,52,.51.03,1.01.05,1.52.08Zm-107.65,171.24c1.38.11,2.76.23,4.14.34,3.25-5.24,7.46-10.12,9.61-15.78,25.12-65.96,50.21-131.97,51.03-204.03.21-18.59.87-37.18.99-55.78.04-6.52-1.52-13.01-8.92-15.01-7.8-2.11-14.27.61-18.77,7.46-1.38,2.1-2.86,4.21-3.8,6.51-6.37,15.72-14.42,31.05-18.46,47.37-6.41,25.9-9.87,52.52-15,78.76-8.34,42.68-11.48,85.58-5.89,128.84.93,7.2,3.32,14.21,5.04,21.31Z"/>
      <path class="cls-5" d="m299.14,578.53c-8.79-.43-17.27-.84-25.76-1.26-.13-1.12-.26-2.24-.39-3.35,2.6-.72,5.17-1.86,7.82-2.09,30.03-2.58,59.6-.66,89.12,6.33,14.92,3.54,25.21,11.34,32,23.98,29.28,54.59,17.76,109.55-30.4,148.58-2.21,1.79-4.35,3.66-8.45,7.13,6.7.71,10.65.92,14.52,1.58,27.25,4.61,46.9,26.52,48.26,54.79.53,10.96-.58,22.03-1.34,33.02-.18,2.62-1.43,5.55-3.08,7.61-19.17,23.9-42.27,42.56-72.51,50.15-9.55,2.4-19.92,1.53-29.9,2.25-16.98,1.22-33.94,2.6-50.92,3.72-3.28.22-6.62-.43-9.93-.68l-.63-2.86c7.39-2.66,14.79-5.31,22-7.91,7.53-82.15,14.19-164.37,9.58-247.15-1.07-19.24,2.9-38.8,5.07-58.15.57-5.11,3.1-10,4.96-15.7Zm37.8,179.78c0-1.01,0-2.01,0-3.02,2.83-1.27,5.57-3.29,8.51-3.67,10.72-1.39,18.08-7.52,22.73-16.53,3.27-6.34,6.48-13.45,6.87-20.38,1.19-21.02,1.88-42.16.93-63.18-.44-9.72-5.64-19.13-7.72-28.89-1.54-7.2-3.49-15.26-1.69-21.98,2.2-8.19-.94-12.23-6.62-15.44-4.58-2.59-9.88-4.04-15-5.48-6.39-1.8-9.05.79-9.28,7.63-3.42,102.09-6.99,204.18-10.65,306.27-.29,8.24,3.4,8.93,9.14,5.3,9.31-5.88,18.54-11.92,27.39-18.46,21.15-15.62,28-38.05,25.64-62.65-2.92-30.33-15.22-54.74-50.25-59.53Z"/>
      <path class="cls-2" d="m880.12,745.42c-3.07,41.3-6.14,82.66-9.29,124.96,8.45.74,16.15,1.41,24.51,2.14,1.2,6.97.94,10.98-8.19,11.68-23.25,1.77-46.41,4.79-69.61,7.32-5.06.55-11.08,1.82-12.16-5.07-1.08-6.89,5.28-6.5,9.73-7.34,15.26-2.89,15.33-2.86,16.98-18.97,9.07-88.07,18.1-176.14,27.26-265.3h-21.42c-.51-.99-1.01-1.98-1.52-2.98,2.37-1.8,4.51-4.63,7.15-5.21,12.31-2.7,24.74-4.85,37.16-7.01,2.08-.36,4.4-.1,6.49.39,16.55,3.89,33.08,7.88,49.59,11.92,2.22.54,4.32,1.57,6.48,2.37-.05,1.02-.11,2.05-.16,3.07-5.55.4-11.1,1.11-16.66,1.14-19.14.13-19.45,0-21.96,18.56-4.64,34.3-8.88,68.66-13.28,102.99.7.58,1.41,1.16,2.11,1.74,6.92-6.38,14.79-12,20.61-19.26,25.42-31.69,50.25-63.85,75.27-95.86,1.47-1.89,2.75-3.92,4.77-6.81-6.08-.36-10.95-.64-15.82-.92-.43-.97-.86-1.94-1.29-2.91,3.55-1.6,7.11-4.56,10.65-4.55,10.06.03,20.11,1.62,30.19,1.93,6.87.21,10.09,2.59,8.47,9.8-.36.27-.95,1.03-1.31.93-11.15-3.13-17.57,2.59-24.19,10.87-28.3,35.4-57.22,70.29-86.14,105.64,26.12,37.47,52.03,74.65,77.94,111.83,2.34,3.36,4.7,6.71,6.98,10.11,8.21,12.25,15.25,26.07,34.01,23.36v11.01c-28.98,4.38-64.82,1.64-71.46-6.21,3.97-1.49,7.55-2.83,11.84-4.43-15.82-25.58-31.32-50.67-46.85-75.74-6.63-10.7-14.19-20.94-19.71-32.18-5.56-11.32-13.53-15.44-27.19-12.98Z"/>
      <path class="cls-2" d="m571.99,330.53c-.74-.02-1.5-.06-2.28-.13-.04,0-.07,0-.11,0-.46,0-.89-.06-1.29-.15-.98-.12-1.99-.27-3.04-.46-16.35-3.09-34.05.96-51.59,2.01,1.17,13.08,11.73,9.27,19.16,11.72-20.61,45.84-41.03,91.28-61.68,137.23-20.05-24.23-57.48-94.97-77.06-144.94,1.86-2.17,3.5-4.08,5.15-5.99-2.4-1.55-4.62-3.55-7.23-4.57-14.1-5.51-28.48-1.77-42.75-.85-2.19.14-4.31,1.45-5.52,1.89,5.14,6.39,11.33,11.57,14.33,18.2,26.49,58.47,52.39,117.22,78.54,175.84,4.93,11.05,12.23,20.17,23.19,27.38,1.75-4.49,3.09-7.98,4.47-11.44,8.73-21.91,16.85-44.08,26.32-65.66,18.7-42.62,38.11-84.94,57.39-127.3.85-1.86,3.23-4.1,5.06-4.25,6.28-.52,12.59-.85,18.93-1.14v-7.38Z"/>
      <path class="cls-1" d="m687.24,307.54c-.91-.19-1.81-.38-2.72-.56-.91,3.07-1.34,6.41-2.87,9.13-1.54,2.74-4.03,6.77-6.37,6.96-23.58,1.86-47.2,3.15-70.83,4.34-4.25.21-9.07-2.22-12.72-.92-6.33,2.26-11.81,4.02-18.39,4.06v7.3c4.3-.2,8.61-.38,12.96-.59-.05-.19.29.42.25.99-4.37,58.77-8.17,117.6-13.55,176.28-1.42,15.47,4.25,33.14-11.79,46.95,33.5-2.18,65.03-4.24,95.93-6.25,2.29,5.34,3.9,9.09,5.52,12.84l2.27-.56,2.93-52.24-4.82-.5c-.64,3.93-1.52,7.85-1.86,11.81-.73,8.62-9.78,23.33-15.66,23.75-16.57,1.18-33.18,1.81-50.92,2.72,3.21-32.39,6.29-63.56,9.3-93.94,17.69-8.07,15.41,9.68,23.61,17.5v-53.76c-2.85,1.87-3.7,4.19-4.26,6.58-1.05,4.56-1.98,9.14-2.88,13.73-1.73,8.85-6.58,10.49-15.07,5.74,3.33-37.51,6.68-75.36,10.11-114.02,18.94,0,36.77-.24,54.59.1,8.67.17,13.17,4.31,10.73,13.89-.99,3.9-.97,8.19-.63,12.23.19,2.27,1.99,4.41,3.07,6.6,1.05-2,2.9-3.97,3.01-6.02.89-16.36,1.48-32.75,2.05-49.13.06-1.65-.64-3.33-.99-5Z"/>
      <path class="cls-3" d="m612.18,734.1c-3.3,38.2-4.46,73.92-20.72,106.76-8.51,17.18-19.04,32.97-35.17,43.61-30.83,20.32-67.05,21.69-90.86-10.21-10.95-14.67-11.36-33.15-12.19-50.7-2.44-51.97,8.46-102.05,23.13-151.44,4.02-13.53,8.53-27.02,14.28-39.88,3.77-8.44,9.68-16.1,15.54-23.39,4.11-5.11,9.86-7.86,16.68-3.42,1.4.91,3.64,1.14,5.37.87,17.94-2.75,31.9,5.36,44.29,16.71,21.78,19.96,34.2,44.9,37.23,74.26,1.36,13.14,1.77,26.38,2.44,36.84Zm-37.22,14.57c-1.66-20.4-2.03-41.01-5.36-61.14-3.05-18.42-7.76-36.91-14.56-54.27-6.62-16.9-19.2-18.62-29.92-3.85-9.79,13.49-18.06,29.01-22.98,44.88-7.42,23.96-11.45,48.98-16.73,73.59-6.63,30.87-7.77,61.88-.24,92.71,2.43,9.97,5.86,20.05,10.82,28.97,8.76,15.74,22.4,17.19,35.77,4.98,2.77-2.53,5.48-5.37,7.38-8.56,21.53-36.13,38.69-73.63,35.82-117.33Z"/>
      <path class="cls-4" d="m587.8,126.25c-2.9,24.54.14,56.56-12.02,85.84-8,19.27-18.39,38.08-30.71,54.91-20.66,28.24-74.44,32.15-95.46,8.03-14.33-16.45-22.14-36.43-20.83-58.22,3.99-66.07,17.01-130.42,40-192.63,6.84-18.49,12.11-18.99,31.79-22.95,30.25-6.08,46.92,11.11,62.82,30.74,19.94,24.62,24.53,43.31,24.4,94.27Zm-133.05,61.45c3.17,17.92,6.58,41.86,11.91,65.36,2.65,11.7,9.48,24.38,22.11,25.93,13.05,1.6,23.97-7.97,30.67-19.02,16.05-26.49,30.36-54.32,31.57-85.87,1.06-27.55-1.14-55.23-2.32-82.84-.99-23.22-6.17-45.44-18-65.76-8.91-15.29-20.4-15.76-30.76-1.28-1.28,1.78-2.44,3.65-3.56,5.55-27.59,46.79-36.32,98.57-41.61,157.93Z"/>
      <path class="cls-4" d="m1137.67,495.48c32.37-.54,43.46-22.6,37.24-54-3.26-16.44-11.42-31.87-16.67-47.98-1.34-4.11-1.69-10.24.48-13.43,3.61-5.32,9.8-5.39,16.05-2.4,23.03,11.01,35.96,39.51,31.11,69.22-2.8,17.16-9.98,32.36-20.22,46.31-1.89,2.58-2.77,5.99-3.69,9.14-.41,1.4.2,3.11.42,4.67,4.17,29.93,8.35,59.85,12.56,90.06,3.19.58,6.23.51,8.58,1.74,2.67,1.4,6.61,3.98,6.59,6.03-.01,2.62-3.05,7.01-5.44,7.51-7.63,1.59-15.6,2.52-23.38,2.21-7.55-.3-12.11-4.35-13.19-13.04-2.96-23.75-7.17-47.34-10.35-71.06-.78-5.85-2.33-9.68-7.98-12.44-5.26-2.57-9.69-6.84-15.68-11.24-1.63,13.94-3.23,27.12-4.69,40.32-1.49,13.47-2.62,26.98-4.33,40.42-.88,6.89-1.33,13.12,8.56,16.18-2.99,2.6-5.02,5.79-6.73,5.63-17.66-1.65-35.27-3.84-54.84-6.1,7.87-11.15,18.32-4.8,26.68-9.51,8.31-71.48,16.71-143.71,25.11-215.87-4.55-1.46-8.38-2.69-12.2-3.92.04-1.06.07-2.13.11-3.19,11.84-7.32,25.7-.99,38.71-4.42,2.93,10.13,1.61,18.9-2.84,27.7-2.33,4.61-4.23,9.86-4.6,14.95-2.06,28.55-3.59,57.14-5.35,86.51Z"/>
      <path class="cls-4" d="m827.84,41.92c-15.93,38.95-14.01,78.22-17.92,116.72-.54,5.28-.73,10.6-1.05,15.46,6.48-1.74,12.38-3.68,18.43-4.88,14.82-2.93,21.21-14.09,22.66-26.85,1.23-10.88-1.32-22.31-3.12-33.35-1.3-7.99-4.25-15.7-6.2-23.6-1.69-6.84-1.4-14.21-8.36-19.13-1.76-1.24-1.92-6.66-.83-9.34.76-1.86,4.98-3.38,7.57-3.26,18.03.85,29.97,10.44,36.25,29.32,10.17,30.56,2.45,58.46-14.23,84.41-4.31,6.7-5.31,12.7-4.16,20.24,3.79,24.9,7.22,49.86,10.31,74.86.76,6.17,2.24,9.34,9.19,10.33,4.66.67,13.33.71,11.55,9-1.53,7.15-8.11,8.65-15.15,7.51-9-1.46-20.69.4-26.36-4.64-5.43-4.83-4.99-16.59-6.49-25.41-2.97-17.38-5.92-34.78-8.04-52.28-.96-7.97-2.91-13.61-11.67-15.59-4.12-.93-7.79-3.87-13.16-6.69-1.53,12.8-2.98,24.75-4.39,36.69-1.55,13.13-3.85,26.25-4.31,39.42-.25,7.19,2.62,14.49,4.45,23.58-10.69-1.3-22.85-2.78-35.09-4.27,10.45-33.5,10.27-67.89,14.67-101.6,4.45-34.04,7.69-68.23,11.41-102.36.85-7.79,1.46-15.61,1.97-21.15-3.42-4.03-5.51-6.49-7.6-8.96,3.07-1.4,6.07-3.82,9.21-4.01,9.06-.55,18.17-.19,30.46-.19Z"/>
      <path class="cls-4" d="m722.08,551.64c-3.71,10.79-29.92,10.89-42.41-.69,2.18-.85,4.59-2.58,5.45-2,7.24,4.85,8.69-.54,10.26-5.54,1.31-4.17,3.04-8.4,3.29-12.68,3.34-57.59,6.53-115.18,9.55-172.79.51-9.82,4.52-21.67-13.19-23.72.63-.92,1.25-1.83,1.88-2.75,2.9-.56,5.81-1.65,8.69-1.57,9.14.27,18.26,1.32,27.39,1.39,6.09.05,8.31,2.22,9.96,8.35,15.64,58.01,31.79,115.89,47.83,173.79.4,1.44,1.17,2.78,2.71,6.37,7.91-61.24,15.52-120.18,23.23-179.86-6.67-1.11-12.84-2.14-19.01-3.16.07-1.05.15-2.1.22-3.15,13.59-4.7,27.17.71,40.76.19.24,1.35.48,2.71.72,4.06-4.45,1.29-8.9,2.57-14.87,4.3-1.92,14.72-4.1,30.81-6.11,46.93-6.6,52.82-13.1,105.66-19.74,158.48-1.44,11.42-9.5,16.26-20.56,11.91-2.44-.96-4.41-4.87-5.27-7.81-17.72-60.39-35.25-120.83-52.84-181.25-.67-2.31-1.52-4.58-3.88-6.7-1.35,26.17-2.67,52.35-4.05,78.52-1.57,29.58-3.1,59.17-4.83,88.75-.82,14.08,1.58,17.7,14.83,20.64Z"/>
      <path class="cls-1" d="m1259.4,605.6c14.81,1.77,28.82,3.73,42.9,4.86,2.25.18,5.05-3.05,7.13-5.16,2.28-2.32,4.03-5.16,6.01-7.77.97.61,1.94,1.22,2.91,1.82-3.32,13.13-6.64,26.26-10.68,42.24-5.87-20.16-21.64-16.77-34.1-18.44-13.33-1.79-27.04-.67-40.58-1.12-3.6-.12-7.47-.72-10.65-2.26-2.19-1.06-3.4-4.14-5.04-6.31,2.16-1.48,4.52-2.75,6.44-4.51,2.44-2.23,6.23-4.68,6.51-7.34,7.37-69.04,10.73-138.23,6.3-207.64-.08-1.21-.53-2.39-.8-3.55-5.58-.9-10.87-1.75-16.16-2.61-.09-1.15-.18-2.3-.27-3.46,3.14-.73,6.26-2.06,9.41-2.1,22.07-.29,44.17-.91,66.22-.15,9.73.34,16.08-2.84,21.04-10.6,1.76-2.75,4.12-5.12,7.5-9.26v44.09c-12.33-25.84-35.02-14.59-55.12-15.9v96.29q7.65,3.49,15.19-12.36c7.93,3.21,9.02,31.78,1.49,43.96-7.69-3.68-5.15-20.19-20.37-15.48-1.75,33.88-3.51,68.03-5.3,102.75Z"/>
      <path class="cls-3" d="m890.18,347.08h-32.8c-6.11,7.54.76,20.88-12.59,26.25,1.57-12.96,2.99-24.74,4.58-37.82,39.77,1.73,79.02,3.43,117.86,5.11,1.97-4.51,3.81-8.74,5.66-12.97,1.33.46,2.67.92,4,1.39-2.16,18.57-4.27,37.16-6.68,55.7-.1.73-3.12,1.08-5.49,1.84v-36.06c-12.41-.64-24.59-1.26-38.15-1.96-2.54,15.15-5.14,30.22-7.57,45.31-7.54,46.65-14.49,93.4-22.88,139.9-2.23,12.37,7.43,10.49,12.65,14.2-5.06,6.22-54.02,10.14-64.22,4.31,21.18-3.14,17.75-19.72,19.78-32.92,8.74-56.97,17.14-113.98,25.86-172.29Z"/>
      <path class="cls-1" d="m741.4,78.75c-6.63-3.21-11.8-5.7-16.97-8.2.38-1.25.77-2.5,1.15-3.75,13.32,2.38,26.64,4.76,39.96,7.15-.11,1.23-.22,2.46-.33,3.69h-15.67c-6.03,20.46-11.81,40.94-18.11,61.25-12.7,40.97-30.73,79.14-59.88,111.3-13.16,14.52-15.41,13.07-26.79-.45-13.44-15.97-13.92-35.95-15.49-55.4-2.73-33.69-3.66-67.24,5.07-100.45,2.12-8.08,2.17-16.97,1.58-25.37-.26-3.63-4.59-6.97-7.86-11.55h40.12c.3,1.35.61,2.69.91,4.04-1.88,1.16-3.79,3.33-5.65,3.29-6.55-.13-8.15,3.49-8.01,8.97,1.22,45.95,2.08,91.91,3.96,137.83.41,10.08,4.45,20.02,7.25,31.85,41.06-49.2,60.38-105.46,74.75-164.18Z"/>
      <path class="cls-5" d="m1111.67,365.25c-1.3.55-2.78,1.83-3.87,1.55-12.05-3.02-14.77,4.32-16.65,13.86-8.97,45.38-24.15,88.66-47.69,128.51-7.36,12.46-18.51,22.73-28.14,33.81-5.43,6.24-10.92,4.53-14.19-1.93-4.34-8.59-8.93-17.45-10.98-26.73-9.45-42.68-9.64-85.56-.99-128.51,2.16-10.72,2.84-21.74,4.12-32.01-3.57-2.41-6.02-4.05-8.8-5.93,13.6-6.92,35.68-4.03,37.47,4.41-12.86.08-12.91.08-12.8,13.55.3,34.35-.24,68.74,1.31,103.03.9,19.82,5.2,39.49,9.66,59.29,38.61-47.63,54.4-103.77,66.52-161.87-3.98-1.26-7.9-2.27-11.61-3.79-1.17-.48-2.47-2.35-2.44-3.54.03-1.12,1.93-3.24,2.71-3.12,12.22,2,24.4,4.29,36.58,6.52l-.22,2.9Z"/>
    </g>
  </g>
</svg>